<?xml version="1.0" encoding="utf-8"?>
<!-- Generator: Adobe Illustrator 22.0.0, SVG Export Plug-In . SVG Version: 6.00 Build 0)  -->
<svg version="1.1" id="Слой_1" xmlns="http://www.w3.org/2000/svg" xmlns:xlink="http://www.w3.org/1999/xlink" x="0px" y="0px"
	 viewBox="0 0 172.9 36.9" style="enable-background:new 0 0 172.9 36.9;" xml:space="preserve">
<style type="text/css">
	.st0{fill:#FFFFFF;}
	.st1{clip-path:url(#SVGID_2_);fill:#FFFFFF;}
	.st2{clip-path:url(#SVGID_4_);fill:#FFFFFF;}
</style>
<polygon class="st0" points="22.6,10.8 12.7,32.7 2.8,10.8 0,10.8 11.9,36.6 13.6,36.6 25.3,10.8 "/>
<g>
	<defs>
		<rect id="SVGID_1_" y="0" width="172.9" height="36.9"/>
	</defs>
	<clipPath id="SVGID_2_">
		<use xlink:href="#SVGID_1_"  style="overflow:visible;"/>
	</clipPath>
	<path class="st1" d="M27.9,22.2c0.5-5.6,4.4-9.5,9.6-9.5c5.5,0,8.7,4.7,9.2,9.5H27.9z M37.6,10.2c-7,0-12.3,5.7-12.3,13.4
		c0,7.7,5.4,13.4,12.8,13.4c4.1,0,7.9-2,10.4-5.6l0.4-0.6l-2-1.4l-0.4,0.6c-1.6,2.2-4.6,4.5-8.3,4.5c-5.6,0-9.7-4-10.2-9.9h21.5
		v-0.9C49.4,17,45.3,10.2,37.6,10.2"/>
	<path class="st1" d="M65.2,10.2c-4.1,0-7.2,2.4-9.1,5.4v-4.9h-2.5v25.6h2.5V23.2c0-4.4,3.4-10.5,8.9-10.5h1V11l-0.1-0.8H65.2z"/>
</g>
<rect x="90.1" y="1.4" class="st0" width="2.5" height="3.7"/>
<rect x="90.4" y="11.1" class="st0" width="2" height="25.1"/>
<g>
	<defs>
		<rect id="SVGID_3_" y="0" width="172.9" height="36.9"/>
	</defs>
	<clipPath id="SVGID_4_">
		<use xlink:href="#SVGID_3_"  style="overflow:visible;"/>
	</clipPath>
	<path class="st2" d="M110.1,34.7c-6.1,0-10.5-4.7-10.5-11.2c0-6.4,4.4-11,10.5-11c5.9,0,10.6,4.9,10.6,11.2
		C120.8,29.9,116.1,34.7,110.1,34.7 M120.7,16.6c-2.1-3.8-6-6.1-10.6-6.1c-7.1,0-12.5,5.6-12.5,13.2c0,7.4,5.4,13.1,12.5,13.1
		c4.6,0,8.5-2.3,10.6-6.1v5.5h2V0h-2V16.6z"/>
	<path class="st2" d="M139.5,12.4c5.8,0,9.1,5,9.5,10h-19.3C130.1,16.5,134.1,12.4,139.5,12.4 M139.6,10.5c-6.9,0-12,5.6-12,13.1
		c0,7.6,5.3,13.1,12.5,13.1c4.1,0,7.8-2,10.2-5.5l0.3-0.4l-1.6-1.1l-0.3,0.4c-1.6,2.2-4.7,4.6-8.5,4.6c-5.8,0-10.1-4.2-10.4-10.4
		h21.5v-0.7C151.1,17.1,147.2,10.5,139.6,10.5"/>
	<path class="st2" d="M163.9,22.3c-4-1.1-7.3-2.2-7.3-5.1c0-2.7,2.9-4.6,6.8-4.6c2.5,0,5.3,0.9,7.5,2.5l0.4,0.3l1.1-1.7l-0.4-0.3
		c-2.5-1.7-5.7-2.8-8.7-2.8c-5.1,0-8.9,2.8-8.9,6.7c0,4.1,3.6,5.5,8.8,6.9l0.2,0.1c3.8,1.1,7.3,2.1,7.3,5.4c0,2.8-3,4.8-7.1,4.8
		c-3.1,0-6.3-1.2-8.8-3.3l-0.4-0.3l-1.2,1.6l0.4,0.3c2.7,2.3,6.5,3.7,10,3.7c5.3,0,9.2-2.9,9.2-6.9
		C172.9,25.2,168.8,23.7,163.9,22.3"/>
</g>
<polygon class="st0" points="69,1.4 69,36.1 71.1,36.1 71.1,20 82,20 82.4,18 71.1,18 71.1,3.4 85.7,3.4 86.2,1.4 "/>
</svg>
